<svg width="20" height="20" viewBox="0 0 20 20" fill="none" xmlns="http://www.w3.org/2000/svg">
<path d="M10 0C4.47714 0 0 4.47714 0 10C0 15.5229 4.47714 20 10 20C15.5229 20 20 15.5229 20 10C20 4.47714 15.5229 0 10 0ZM10 18.0645C5.54306 18.0645 1.93548 14.4576 1.93548 10C1.93548 5.5431 5.54238 1.93548 10 1.93548C14.4569 1.93548 18.0645 5.54238 18.0645 10C18.0645 14.4569 14.4576 18.0645 10 18.0645ZM14.3287 13.9894C13.941 14.381 12.4928 15.6585 10.1325 15.6585C6.80871 15.6585 4.46782 13.1817 4.46782 9.9502C4.46782 6.75859 6.89827 4.32919 10.1034 4.32919C12.3425 4.32919 13.6815 5.40258 14.0386 5.73157C14.1225 5.80874 14.1764 5.91311 14.1906 6.0262C14.2049 6.13929 14.1787 6.25379 14.1167 6.34939L13.3846 7.48298C13.2297 7.7229 12.9021 7.77661 12.679 7.60077C12.3324 7.32754 11.3962 6.69198 10.1908 6.69198C8.24306 6.69198 7.04899 8.11657 7.04899 9.92109C7.04899 11.5981 8.13319 13.2958 10.2053 13.2958C11.5221 13.2958 12.4974 12.5281 12.8556 12.198C13.0681 12.0021 13.4038 12.0351 13.5741 12.2681L14.3751 13.3636C14.4434 13.4563 14.4763 13.5703 14.4677 13.6851C14.4592 13.7999 14.4099 13.9078 14.3287 13.9894Z" fill="black"/>
</svg>
