<svg width="54" height="54" viewBox="0 0 54 54" fill="none" xmlns="http://www.w3.org/2000/svg">
<circle cx="27" cy="27" r="26.5" fill="white" stroke="#D9D9D9"/>
<path d="M39.0687 16.2885C38.8183 16.1591 38.5746 16.0173 38.3385 15.8636C37.6519 15.4096 37.0224 14.8748 36.4635 14.2705C35.065 12.6705 34.5428 11.0473 34.3505 9.91078H34.3581C34.1974 8.96744 34.2639 8.35712 34.2739 8.35712H27.9047V32.9857C27.9047 33.3164 27.9047 33.6431 27.8908 33.9661C27.8908 34.0063 27.8869 34.0434 27.8846 34.0866C27.8846 34.1044 27.8846 34.1229 27.8808 34.1414V34.1554C27.8137 35.039 27.5304 35.8926 27.0559 36.6412C26.5814 37.3897 25.9303 38.0101 25.1598 38.4479C24.3567 38.9047 23.4484 39.1444 22.5244 39.1432C19.5569 39.1432 17.1519 36.7235 17.1519 33.7351C17.1519 30.7468 19.5569 28.327 22.5244 28.327C23.0862 28.3265 23.6444 28.4148 24.1785 28.5889L24.1863 22.1037C22.5649 21.8943 20.9177 22.0232 19.3486 22.4822C17.7795 22.9413 16.3226 23.7204 15.0697 24.7708C13.972 25.7246 13.0491 26.8627 12.3425 28.1338C12.0737 28.5974 11.0592 30.4601 10.9364 33.4832C10.8591 35.1992 11.3744 36.9769 11.6202 37.7116V37.7271C11.7747 38.1597 12.3734 39.6361 13.3492 40.8807C14.136 41.8791 15.0656 42.7562 16.1081 43.4836V43.4681L16.1236 43.4836C19.2069 45.5789 22.6257 45.4413 22.6257 45.4413C23.2175 45.4174 25.1999 45.4413 27.4512 44.3744C29.9482 43.1916 31.3698 41.4293 31.3698 41.4293C32.278 40.3763 33.0001 39.1763 33.5052 37.8808C34.0816 36.3658 34.2739 34.5486 34.2739 33.8224V20.7563C34.3512 20.8027 35.3803 21.4834 35.3803 21.4834C35.3803 21.4834 36.8629 22.4337 39.176 23.0525C40.8355 23.4929 43.0714 23.5856 43.0714 23.5856V17.2628C42.288 17.3477 40.6972 17.1005 39.0687 16.2885Z" fill="black"/>
</svg>
