<svg width="54" height="54" viewBox="0 0 54 54" fill="none" xmlns="http://www.w3.org/2000/svg">
<circle cx="27" cy="27" r="26.5" fill="white" stroke="#D9D9D9"/>
<path d="M42.4004 19.5359C42.0186 18.1805 40.9616 17.1174 39.6001 16.7416C37.0932 16.0714 27.0154 16.0714 27.0154 16.0714C27.0154 16.0714 16.9566 16.0554 14.4236 16.7416C13.0691 17.1184 12.0071 18.1805 11.6293 19.5359C11.154 22.1051 10.9179 24.7055 10.929 27.3179C10.9239 29.9132 11.1591 32.5095 11.6293 35.0627C12.0071 36.4181 13.0691 37.4811 14.4236 37.863C16.9305 38.5331 27.0154 38.5331 27.0154 38.5331C27.0154 38.5331 37.0681 38.5331 39.6001 37.863C40.9616 37.4811 42.0186 36.4191 42.4004 35.0627C42.8616 32.5095 43.0867 29.9132 43.0706 27.3179C43.0867 24.7055 42.8667 22.1051 42.4004 19.5359ZM23.7961 32.1277V22.4869L32.1849 27.3179L23.7961 32.1277Z" fill="black"/>
</svg>
