<svg width="39" height="39" viewBox="0 0 39 39" fill="none" xmlns="http://www.w3.org/2000/svg">
<path d="M13.8853 2L7.71051 8.19182" stroke="black" stroke-width="4" stroke-miterlimit="10" stroke-linecap="round" stroke-linejoin="round"/>
<path d="M24.7679 2L30.9426 8.19182" stroke="black" stroke-width="4" stroke-miterlimit="10" stroke-linecap="round" stroke-linejoin="round"/>
<path d="M2.26923 11.9785C2.26923 8.82288 3.9579 8.56702 6.05596 8.56702H32.5972C34.6953 8.56702 36.3839 8.82288 36.3839 11.9785C36.3839 15.6458 34.6953 15.39 32.5972 15.39H6.05596C3.9579 15.39 2.26923 15.6458 2.26923 11.9785Z" stroke="black" stroke-width="4"/>
<path d="M15.5058 22.4688V28.5241" stroke="black" stroke-width="4" stroke-linecap="round"/>
<path d="M23.3521 22.4688V28.5241" stroke="black" stroke-width="4" stroke-linecap="round"/>
<path d="M4.82782 15.6459L7.23291 30.3834C7.77874 33.6926 9.09216 36.1147 13.9706 36.1147H24.2561C29.561 36.1147 30.3456 33.7949 30.9597 30.5881L33.8253 15.6459" stroke="black" stroke-width="4" stroke-linecap="round"/>
</svg>
