<?xml version="1.0" encoding="UTF-8"?>
<!DOCTYPE svg PUBLIC "-//W3C//DTD SVG 1.1//EN" "http://www.w3.org/Graphics/SVG/1.1/DTD/svg11.dtd">
<svg xmlns="http://www.w3.org/2000/svg" version="1.1" width="300px" height="180px" style="shape-rendering:geometricPrecision; text-rendering:geometricPrecision; image-rendering:optimizeQuality; fill-rule:evenodd; clip-rule:evenodd" xmlns:xlink="http://www.w3.org/1999/xlink">
<g><path style="opacity:1" fill="#0516fe" d="M -0.5,-0.5 C 99.5,-0.5 199.5,-0.5 299.5,-0.5C 299.5,25.8333 299.5,52.1667 299.5,78.5C 291.576,63.7461 279.909,52.9128 264.5,46C 227.454,29.533 188.62,22.033 148,23.5C 107.587,22.1159 69.0867,29.9492 32.5,47C 18.033,53.9691 7.03303,64.4691 -0.5,78.5C -0.5,52.1667 -0.5,25.8333 -0.5,-0.5 Z"/></g>
<g><path style="opacity:1" fill="#fcd609" d="M 299.5,78.5 C 299.5,86.1667 299.5,93.8333 299.5,101.5C 291.967,115.531 280.967,126.031 266.5,133C 229.062,150.042 189.728,157.875 148.5,156.5C 107.912,157.949 69.2453,150.116 32.5,133C 18.033,126.031 7.03303,115.531 -0.5,101.5C -0.5,93.8333 -0.5,86.1667 -0.5,78.5C 7.03303,64.4691 18.033,53.9691 32.5,47C 69.0867,29.9492 107.587,22.1159 148,23.5C 188.62,22.033 227.454,29.533 264.5,46C 279.909,52.9128 291.576,63.7461 299.5,78.5 Z"/></g>
<g><path style="opacity:1" fill="#191cf8" d="M 258.5,59.5 C 259.75,59.5774 260.583,60.244 261,61.5C 267.338,78.3484 273.172,95.3484 278.5,112.5C 281.247,112.187 283.914,112.52 286.5,113.5C 277.833,114.833 269.167,114.833 260.5,113.5C 263.447,112.679 266.447,112.179 269.5,112C 267.137,107.41 265.47,102.577 264.5,97.5C 258.463,97.1707 252.463,97.5041 246.5,98.5C 245.03,102.912 243.363,107.245 241.5,111.5C 254.737,113.14 254.737,114.14 241.5,114.5C 238.167,114.167 234.833,113.833 231.5,113.5C 234.086,112.52 236.753,112.187 239.5,112.5C 245.633,94.769 251.966,77.1024 258.5,59.5 Z"/></g>
<g><path style="opacity:1" fill="#0014ff" d="M 21.5,60.5 C 30.5246,60.1685 39.5246,60.5018 48.5,61.5C 45.5719,62.4841 42.5719,62.8174 39.5,62.5C 39.5,79.1667 39.5,95.8333 39.5,112.5C 42.5719,112.183 45.5719,112.516 48.5,113.5C 39.5,114.833 30.5,114.833 21.5,113.5C 24.4281,112.516 27.4281,112.183 30.5,112.5C 30.5,95.8333 30.5,79.1667 30.5,62.5C 26.9878,63.0545 23.9878,62.3878 21.5,60.5 Z"/></g>
<g><path style="opacity:1" fill="#0a17fd" d="M 56.5,60.5 C 65.5246,60.1685 74.5246,60.5018 83.5,61.5C 80.5719,62.4841 77.5719,62.8174 74.5,62.5C 74.5,79.1667 74.5,95.8333 74.5,112.5C 89.7057,116.908 99.039,111.575 102.5,96.5C 102.934,102.444 102.934,108.444 102.5,114.5C 87.1522,114.833 71.8189,114.499 56.5,113.5C 59.4281,112.516 62.4281,112.183 65.5,112.5C 65.5,95.8333 65.5,79.1667 65.5,62.5C 61.9878,63.0545 58.9878,62.3878 56.5,60.5 Z"/></g>
<g><path style="opacity:1" fill="#0116fd" d="M 112.5,60.5 C 121.192,60.1686 129.859,60.502 138.5,61.5C 135.914,62.48 133.247,62.8134 130.5,62.5C 130.5,79.1667 130.5,95.8333 130.5,112.5C 133.247,112.187 135.914,112.52 138.5,113.5C 129.833,114.833 121.167,114.833 112.5,113.5C 115.086,112.52 117.753,112.187 120.5,112.5C 120.5,95.8333 120.5,79.1667 120.5,62.5C 117.302,63.0356 114.635,62.369 112.5,60.5 Z"/></g>
<g><path style="opacity:1" fill="#181cf8" d="M 144.5,60.5 C 151.532,60.1697 158.532,60.503 165.5,61.5C 162.553,62.3214 159.553,62.8214 156.5,63C 150.455,68.7098 144.788,74.7098 139.5,81C 147.32,90.8223 155.153,100.656 163,110.5C 165.243,111.971 167.743,112.971 170.5,113.5C 161.5,114.833 152.5,114.833 143.5,113.5C 146.447,112.679 149.447,112.179 152.5,112C 145.62,103.076 138.62,94.2423 131.5,85.5C 138.652,77.8477 145.985,70.3477 153.5,63C 150.008,63.0704 147.008,62.2371 144.5,60.5 Z"/></g>
<g><path style="opacity:1" fill="#0c19fa" d="M 222.5,69.5 C 222.923,71.7812 222.256,73.4479 220.5,74.5C 220.422,68.8385 217.756,65.0052 212.5,63C 206.509,62.5005 200.509,62.3338 194.5,62.5C 194.5,70.1667 194.5,77.8333 194.5,85.5C 203.104,87.3745 208.104,84.0412 209.5,75.5C 210.833,83.1667 210.833,90.8333 209.5,98.5C 208.247,89.7081 203.247,86.0415 194.5,87.5C 194.5,95.8333 194.5,104.167 194.5,112.5C 202.035,113.073 209.368,112.239 216.5,110C 220.054,106.197 222.388,101.697 223.5,96.5C 224.496,102.463 224.829,108.463 224.5,114.5C 208.486,114.833 192.486,114.499 176.5,113.5C 179.086,112.52 181.753,112.187 184.5,112.5C 184.5,95.8333 184.5,79.1667 184.5,62.5C 181.753,62.8134 179.086,62.48 176.5,61.5C 191.819,60.5006 207.152,60.1673 222.5,60.5C 222.5,63.5 222.5,66.5 222.5,69.5 Z"/></g>
<g><path style="opacity:1" fill="#93836f" d="M 222.5,69.5 C 223.461,71.2646 223.795,73.2646 223.5,75.5C 222.209,75.7373 221.209,75.404 220.5,74.5C 222.256,73.4479 222.923,71.7812 222.5,69.5 Z"/></g>
<g><path style="opacity:1" fill="#f5d01d" d="M 254.5,74.5 C 255.497,74.4701 256.164,74.9701 256.5,76C 258.445,82.5039 260.778,88.8373 263.5,95C 258.167,95.6667 252.833,95.6667 247.5,95C 250.53,88.4089 252.864,81.5756 254.5,74.5 Z"/></g>
<g><path style="opacity:1" fill="#0616fe" d="M -0.5,101.5 C 7.03303,115.531 18.033,126.031 32.5,133C 69.2453,150.116 107.912,157.949 148.5,156.5C 189.728,157.875 229.062,150.042 266.5,133C 280.967,126.031 291.967,115.531 299.5,101.5C 299.5,127.5 299.5,153.5 299.5,179.5C 199.5,179.5 99.5,179.5 -0.5,179.5C -0.5,153.5 -0.5,127.5 -0.5,101.5 Z"/></g>
</svg>
