<svg width="25" height="25" viewBox="0 0 25 25" fill="none" xmlns="http://www.w3.org/2000/svg">
<path d="M24.1085 21.743L18.6295 16.264C19.9486 14.508 20.6606 12.3705 20.6582 10.1742C20.6582 4.56418 16.0941 0 10.4841 0C4.87405 0 0.309875 4.56418 0.309875 10.1742C0.309875 15.7842 4.87405 20.3484 10.4841 20.3484C12.6804 20.3508 14.8178 19.6387 16.5739 18.3196L22.0529 23.7986C22.3302 24.0465 22.692 24.1789 23.0638 24.1684C23.4357 24.158 23.7894 24.0057 24.0525 23.7426C24.3155 23.4796 24.4679 23.1258 24.4783 22.754C24.4887 22.3821 24.3564 22.0204 24.1085 21.743ZM3.21679 10.1742C3.21679 8.73686 3.643 7.3318 4.44154 6.13671C5.24008 4.94161 6.37507 4.01014 7.703 3.4601C9.03092 2.91006 10.4921 2.76614 11.9018 3.04655C13.3116 3.32696 14.6065 4.0191 15.6228 5.03545C16.6391 6.05179 17.3313 7.3467 17.6117 8.75641C17.8921 10.1661 17.7482 11.6273 17.1982 12.9553C16.6481 14.2832 15.7166 15.4182 14.5215 16.2167C13.3264 17.0152 11.9214 17.4415 10.4841 17.4415C8.55737 17.4392 6.71025 16.6728 5.34788 15.3104C3.9855 13.948 3.2191 12.1009 3.21679 10.1742Z" fill="black"/>
</svg>
