<svg width="154" height="187" viewBox="0 0 154 187" fill="none" xmlns="http://www.w3.org/2000/svg">
<rect x="0.5" y="0.5" width="153" height="186" fill="#FCD609" stroke="black"/>
<path d="M34.936 26H28.552V14.576H34.936V15.84H29.992V19.408H34.648V20.656H29.992V24.736H34.936V26ZM39.2826 21.616L36.3226 17.424H37.9226L40.1306 20.656L42.3226 17.424H43.9066L40.9466 21.616L44.0666 26H42.4666L40.1306 22.576L37.7626 26H36.1786L39.2826 21.616ZM49.7994 17.264C50.8554 17.264 51.7034 17.632 52.3434 18.368C52.994 19.104 53.3194 20.2133 53.3194 21.696C53.3194 22.6667 53.17 23.488 52.8714 24.16C52.5834 24.8213 52.1727 25.3227 51.6394 25.664C51.1167 25.9947 50.498 26.16 49.7834 26.16C49.346 26.16 48.9567 26.1013 48.6154 25.984C48.274 25.8667 47.9807 25.7173 47.7354 25.536C47.5007 25.344 47.298 25.136 47.1274 24.912H47.0314C47.0527 25.0933 47.074 25.3227 47.0954 25.6C47.1167 25.8773 47.1274 26.1173 47.1274 26.32V29.84H45.7194V17.424H46.8714L47.0634 18.592H47.1274C47.298 18.3467 47.5007 18.1227 47.7354 17.92C47.9807 17.7173 48.2687 17.5573 48.5994 17.44C48.9407 17.3227 49.3407 17.264 49.7994 17.264ZM49.5434 18.448C48.9674 18.448 48.5034 18.56 48.1514 18.784C47.7994 18.9973 47.5434 19.3227 47.3834 19.76C47.2234 20.1973 47.138 20.752 47.1274 21.424V21.696C47.1274 22.4 47.202 22.9973 47.3514 23.488C47.5007 23.9787 47.7514 24.352 48.1034 24.608C48.466 24.864 48.9567 24.992 49.5754 24.992C50.098 24.992 50.5247 24.848 50.8554 24.56C51.1967 24.272 51.4474 23.8827 51.6074 23.392C51.778 22.8907 51.8634 22.32 51.8634 21.68C51.8634 20.6987 51.6714 19.9147 51.2874 19.328C50.914 18.7413 50.3327 18.448 49.5434 18.448ZM56.9711 26H55.5631V13.84H56.9711V26ZM67.1441 21.696C67.1441 22.4107 67.0481 23.0453 66.8561 23.6C66.6748 24.144 66.4081 24.608 66.0561 24.992C65.7148 25.376 65.2935 25.6693 64.7921 25.872C64.3015 26.064 63.7521 26.16 63.1441 26.16C62.5788 26.16 62.0561 26.064 61.5761 25.872C61.0961 25.6693 60.6801 25.376 60.3281 24.992C59.9761 24.608 59.6988 24.144 59.4961 23.6C59.3041 23.0453 59.2081 22.4107 59.2081 21.696C59.2081 20.7467 59.3681 19.9467 59.6881 19.296C60.0081 18.6347 60.4668 18.1333 61.0641 17.792C61.6615 17.44 62.3708 17.264 63.1921 17.264C63.9708 17.264 64.6535 17.44 65.2401 17.792C65.8375 18.1333 66.3015 18.6347 66.6321 19.296C66.9735 19.9467 67.1441 20.7467 67.1441 21.696ZM60.6641 21.696C60.6641 22.368 60.7495 22.9547 60.9201 23.456C61.1015 23.9467 61.3788 24.3253 61.7521 24.592C62.1255 24.8587 62.6001 24.992 63.1761 24.992C63.7521 24.992 64.2268 24.8587 64.6001 24.592C64.9735 24.3253 65.2455 23.9467 65.4161 23.456C65.5975 22.9547 65.6881 22.368 65.6881 21.696C65.6881 21.0133 65.5975 20.432 65.4161 19.952C65.2348 19.472 64.9575 19.104 64.5841 18.848C64.2215 18.5813 63.7468 18.448 63.1601 18.448C62.2855 18.448 61.6508 18.736 61.2561 19.312C60.8615 19.888 60.6641 20.6827 60.6641 21.696ZM73.3756 17.264C73.5356 17.264 73.7063 17.2747 73.8876 17.296C74.0796 17.3067 74.245 17.328 74.3836 17.36L74.2076 18.656C74.069 18.624 73.9143 18.5973 73.7436 18.576C73.5836 18.5547 73.429 18.544 73.2796 18.544C72.949 18.544 72.6343 18.6133 72.3356 18.752C72.037 18.8907 71.7703 19.088 71.5356 19.344C71.301 19.5893 71.1143 19.888 70.9756 20.24C70.8476 20.592 70.7836 20.9867 70.7836 21.424V26H69.3756V17.424H70.5276L70.6876 18.992H70.7516C70.933 18.672 71.1516 18.384 71.4076 18.128C71.6636 17.8613 71.957 17.6533 72.2876 17.504C72.6183 17.344 72.981 17.264 73.3756 17.264ZM78.9845 17.264C79.7205 17.264 80.3498 17.424 80.8725 17.744C81.4058 18.064 81.8112 18.5173 82.0885 19.104C82.3765 19.68 82.5205 20.3573 82.5205 21.136V21.984H76.6485C76.6698 22.9547 76.9152 23.696 77.3845 24.208C77.8645 24.7093 78.5312 24.96 79.3845 24.96C79.9285 24.96 80.4085 24.912 80.8245 24.816C81.2512 24.7093 81.6885 24.56 82.1365 24.368V25.6C81.6992 25.792 81.2672 25.9307 80.8405 26.016C80.4138 26.112 79.9072 26.16 79.3205 26.16C78.5098 26.16 77.7898 25.9947 77.1605 25.664C76.5418 25.3333 76.0565 24.8427 75.7045 24.192C75.3632 23.5307 75.1925 22.7253 75.1925 21.776C75.1925 20.8373 75.3472 20.032 75.6565 19.36C75.9765 18.688 76.4192 18.1707 76.9845 17.808C77.5605 17.4453 78.2272 17.264 78.9845 17.264ZM78.9685 18.416C78.2965 18.416 77.7632 18.6347 77.3685 19.072C76.9845 19.4987 76.7552 20.096 76.6805 20.864H81.0485C81.0485 20.3733 80.9738 19.9467 80.8245 19.584C80.6752 19.2213 80.4458 18.9387 80.1365 18.736C79.8378 18.5227 79.4485 18.416 78.9685 18.416ZM98.268 17.264C99.2387 17.264 99.964 17.5147 100.444 18.016C100.924 18.5067 101.164 19.3067 101.164 20.416V26H99.772V20.48C99.772 19.808 99.628 19.3013 99.34 18.96C99.0627 18.6187 98.6253 18.448 98.028 18.448C97.196 18.448 96.5987 18.688 96.236 19.168C95.884 19.648 95.708 20.3467 95.708 21.264V26H94.316V20.48C94.316 20.032 94.252 19.6587 94.124 19.36C93.996 19.0507 93.804 18.8213 93.548 18.672C93.292 18.5227 92.9613 18.448 92.556 18.448C91.98 18.448 91.5267 18.5707 91.196 18.816C90.8653 19.0507 90.6253 19.3973 90.476 19.856C90.3373 20.3147 90.268 20.88 90.268 21.552V26H88.86V17.424H89.996L90.204 18.592H90.284C90.4653 18.2933 90.684 18.048 90.94 17.856C91.2067 17.6533 91.5 17.504 91.82 17.408C92.14 17.312 92.4707 17.264 92.812 17.264C93.4733 17.264 94.0227 17.3813 94.46 17.616C94.908 17.8507 95.2333 18.2133 95.436 18.704H95.516C95.804 18.2133 96.1933 17.8507 96.684 17.616C97.1853 17.3813 97.7133 17.264 98.268 17.264ZM111.269 21.696C111.269 22.4107 111.173 23.0453 110.981 23.6C110.8 24.144 110.533 24.608 110.181 24.992C109.84 25.376 109.418 25.6693 108.917 25.872C108.426 26.064 107.877 26.16 107.269 26.16C106.704 26.16 106.181 26.064 105.701 25.872C105.221 25.6693 104.805 25.376 104.453 24.992C104.101 24.608 103.824 24.144 103.621 23.6C103.429 23.0453 103.333 22.4107 103.333 21.696C103.333 20.7467 103.493 19.9467 103.813 19.296C104.133 18.6347 104.592 18.1333 105.189 17.792C105.786 17.44 106.496 17.264 107.317 17.264C108.096 17.264 108.778 17.44 109.365 17.792C109.962 18.1333 110.426 18.6347 110.757 19.296C111.098 19.9467 111.269 20.7467 111.269 21.696ZM104.789 21.696C104.789 22.368 104.874 22.9547 105.045 23.456C105.226 23.9467 105.504 24.3253 105.877 24.592C106.25 24.8587 106.725 24.992 107.301 24.992C107.877 24.992 108.352 24.8587 108.725 24.592C109.098 24.3253 109.37 23.9467 109.541 23.456C109.722 22.9547 109.813 22.368 109.813 21.696C109.813 21.0133 109.722 20.432 109.541 19.952C109.36 19.472 109.082 19.104 108.709 18.848C108.346 18.5813 107.872 18.448 107.285 18.448C106.41 18.448 105.776 18.736 105.381 19.312C104.986 19.888 104.789 20.6827 104.789 21.696ZM117.501 17.264C117.661 17.264 117.831 17.2747 118.013 17.296C118.205 17.3067 118.37 17.328 118.509 17.36L118.333 18.656C118.194 18.624 118.039 18.5973 117.869 18.576C117.709 18.5547 117.554 18.544 117.405 18.544C117.074 18.544 116.759 18.6133 116.461 18.752C116.162 18.8907 115.895 19.088 115.661 19.344C115.426 19.5893 115.239 19.888 115.101 20.24C114.973 20.592 114.909 20.9867 114.909 21.424V26H113.501V17.424H114.653L114.813 18.992H114.877C115.058 18.672 115.277 18.384 115.533 18.128C115.789 17.8613 116.082 17.6533 116.413 17.504C116.743 17.344 117.106 17.264 117.501 17.264ZM123.11 17.264C123.846 17.264 124.475 17.424 124.998 17.744C125.531 18.064 125.936 18.5173 126.214 19.104C126.502 19.68 126.646 20.3573 126.646 21.136V21.984H120.774C120.795 22.9547 121.04 23.696 121.51 24.208C121.99 24.7093 122.656 24.96 123.51 24.96C124.054 24.96 124.534 24.912 124.95 24.816C125.376 24.7093 125.814 24.56 126.262 24.368V25.6C125.824 25.792 125.392 25.9307 124.966 26.016C124.539 26.112 124.032 26.16 123.446 26.16C122.635 26.16 121.915 25.9947 121.286 25.664C120.667 25.3333 120.182 24.8427 119.83 24.192C119.488 23.5307 119.318 22.7253 119.318 21.776C119.318 20.8373 119.472 20.032 119.782 19.36C120.102 18.688 120.544 18.1707 121.11 17.808C121.686 17.4453 122.352 17.264 123.11 17.264ZM123.094 18.416C122.422 18.416 121.888 18.6347 121.494 19.072C121.11 19.4987 120.88 20.096 120.806 20.864H125.174C125.174 20.3733 125.099 19.9467 124.95 19.584C124.8 19.2213 124.571 18.9387 124.262 18.736C123.963 18.5227 123.574 18.416 123.094 18.416ZM35.816 43.696C35.816 44.4107 35.72 45.0453 35.528 45.6C35.3467 46.144 35.08 46.608 34.728 46.992C34.3867 47.376 33.9653 47.6693 33.464 47.872C32.9733 48.064 32.424 48.16 31.816 48.16C31.2507 48.16 30.728 48.064 30.248 47.872C29.768 47.6693 29.352 47.376 29 46.992C28.648 46.608 28.3707 46.144 28.168 45.6C27.976 45.0453 27.88 44.4107 27.88 43.696C27.88 42.7467 28.04 41.9467 28.36 41.296C28.68 40.6347 29.1387 40.1333 29.736 39.792C30.3333 39.44 31.0427 39.264 31.864 39.264C32.6427 39.264 33.3253 39.44 33.912 39.792C34.5093 40.1333 34.9733 40.6347 35.304 41.296C35.6453 41.9467 35.816 42.7467 35.816 43.696ZM29.336 43.696C29.336 44.368 29.4213 44.9547 29.592 45.456C29.7733 45.9467 30.0507 46.3253 30.424 46.592C30.7973 46.8587 31.272 46.992 31.848 46.992C32.424 46.992 32.8987 46.8587 33.272 46.592C33.6453 46.3253 33.9173 45.9467 34.088 45.456C34.2693 44.9547 34.36 44.368 34.36 43.696C34.36 43.0133 34.2693 42.432 34.088 41.952C33.9067 41.472 33.6293 41.104 33.256 40.848C32.8933 40.5813 32.4187 40.448 31.832 40.448C30.9573 40.448 30.3227 40.736 29.928 41.312C29.5333 41.888 29.336 42.6827 29.336 43.696ZM41.9995 40.512H39.8395V48H38.4315V40.512H36.9275V39.856L38.4315 39.376V38.88C38.4315 38.144 38.5382 37.5467 38.7515 37.088C38.9755 36.6293 39.2955 36.2933 39.7115 36.08C40.1275 35.8667 40.6288 35.76 41.2155 35.76C41.5568 35.76 41.8662 35.792 42.1435 35.856C42.4315 35.9093 42.6768 35.9733 42.8795 36.048L42.5115 37.152C42.3408 37.0987 42.1435 37.0453 41.9195 36.992C41.6955 36.9387 41.4662 36.912 41.2315 36.912C40.7622 36.912 40.4102 37.072 40.1755 37.392C39.9515 37.7013 39.8395 38.192 39.8395 38.864V39.424H41.9995V40.512ZM50.5677 47.008C50.7811 47.008 50.9998 46.992 51.2238 46.96C51.4478 46.9173 51.6291 46.8747 51.7678 46.832V47.904C51.6184 47.9787 51.4051 48.0373 51.1278 48.08C50.8504 48.1333 50.5838 48.16 50.3278 48.16C49.8798 48.16 49.4638 48.0853 49.0798 47.936C48.7064 47.776 48.4024 47.504 48.1678 47.12C47.9331 46.736 47.8158 46.1973 47.8158 45.504V40.512H46.5998V39.84L47.8318 39.28L48.3918 37.456H49.2238V39.424H51.7038V40.512H49.2238V45.472C49.2238 45.9947 49.3464 46.384 49.5918 46.64C49.8478 46.8853 50.1731 47.008 50.5677 47.008ZM54.893 39.408C54.893 39.6107 54.8823 39.8187 54.861 40.032C54.8503 40.2453 54.8343 40.4373 54.813 40.608H54.909C55.0903 40.3093 55.3197 40.064 55.597 39.872C55.8743 39.68 56.1837 39.536 56.525 39.44C56.8663 39.3333 57.2183 39.28 57.581 39.28C58.2743 39.28 58.8503 39.392 59.309 39.616C59.7783 39.8293 60.1303 40.1653 60.365 40.624C60.5997 41.0827 60.717 41.68 60.717 42.416V48H59.325V42.512C59.325 41.8187 59.1703 41.3013 58.861 40.96C58.5517 40.6187 58.0663 40.448 57.405 40.448C56.765 40.448 56.2637 40.5707 55.901 40.816C55.5383 41.0507 55.277 41.4027 55.117 41.872C54.9677 42.3307 54.893 42.896 54.893 43.568V48H53.485V35.84H54.893V39.408ZM66.6876 39.264C67.4236 39.264 68.053 39.424 68.5756 39.744C69.109 40.064 69.5143 40.5173 69.7916 41.104C70.0796 41.68 70.2236 42.3573 70.2236 43.136V43.984H64.3516C64.373 44.9547 64.6183 45.696 65.0876 46.208C65.5676 46.7093 66.2343 46.96 67.0876 46.96C67.6316 46.96 68.1116 46.912 68.5276 46.816C68.9543 46.7093 69.3916 46.56 69.8396 46.368V47.6C69.4023 47.792 68.9703 47.9307 68.5436 48.016C68.117 48.112 67.6103 48.16 67.0236 48.16C66.213 48.16 65.493 47.9947 64.8636 47.664C64.245 47.3333 63.7596 46.8427 63.4076 46.192C63.0663 45.5307 62.8956 44.7253 62.8956 43.776C62.8956 42.8373 63.0503 42.032 63.3596 41.36C63.6796 40.688 64.1223 40.1707 64.6876 39.808C65.2636 39.4453 65.9303 39.264 66.6876 39.264ZM66.6716 40.416C65.9996 40.416 65.4663 40.6347 65.0716 41.072C64.6876 41.4987 64.4583 42.096 64.3836 42.864H68.7516C68.7516 42.3733 68.677 41.9467 68.5276 41.584C68.3783 41.2213 68.149 40.9387 67.8396 40.736C67.541 40.5227 67.1516 40.416 66.6716 40.416ZM81.8149 39.264C82.7855 39.264 83.5109 39.5147 83.9909 40.016C84.4709 40.5067 84.7109 41.3067 84.7109 42.416V48H83.3189V42.48C83.3189 41.808 83.1749 41.3013 82.8869 40.96C82.6095 40.6187 82.1722 40.448 81.5749 40.448C80.7429 40.448 80.1455 40.688 79.7829 41.168C79.4309 41.648 79.2549 42.3467 79.2549 43.264V48H77.8629V42.48C77.8629 42.032 77.7989 41.6587 77.6709 41.36C77.5429 41.0507 77.3509 40.8213 77.0949 40.672C76.8389 40.5227 76.5082 40.448 76.1029 40.448C75.5269 40.448 75.0735 40.5707 74.7429 40.816C74.4122 41.0507 74.1722 41.3973 74.0229 41.856C73.8842 42.3147 73.8149 42.88 73.8149 43.552V48H72.4069V39.424H73.5429L73.7509 40.592H73.8309C74.0122 40.2933 74.2309 40.048 74.4869 39.856C74.7535 39.6533 75.0469 39.504 75.3669 39.408C75.6869 39.312 76.0175 39.264 76.3589 39.264C77.0202 39.264 77.5695 39.3813 78.0069 39.616C78.4549 39.8507 78.7802 40.2133 78.9829 40.704H79.0629C79.3509 40.2133 79.7402 39.8507 80.2309 39.616C80.7322 39.3813 81.2602 39.264 81.8149 39.264ZM92.9243 39.408C92.9243 39.6107 92.9136 39.8187 92.8923 40.032C92.8816 40.2453 92.8656 40.4373 92.8443 40.608H92.9403C93.1216 40.3093 93.3509 40.064 93.6283 39.872C93.9056 39.68 94.2149 39.536 94.5563 39.44C94.8976 39.3333 95.2496 39.28 95.6123 39.28C96.3056 39.28 96.8816 39.392 97.3403 39.616C97.8096 39.8293 98.1616 40.1653 98.3963 40.624C98.6309 41.0827 98.7483 41.68 98.7483 42.416V48H97.3563V42.512C97.3563 41.8187 97.2016 41.3013 96.8923 40.96C96.5829 40.6187 96.0976 40.448 95.4363 40.448C94.7963 40.448 94.2949 40.5707 93.9323 40.816C93.5696 41.0507 93.3083 41.4027 93.1483 41.872C92.9989 42.3307 92.9243 42.896 92.9243 43.568V48H91.5163V35.84H92.9243V39.408ZM104.719 39.264C105.455 39.264 106.084 39.424 106.607 39.744C107.14 40.064 107.546 40.5173 107.823 41.104C108.111 41.68 108.255 42.3573 108.255 43.136V43.984H102.383C102.404 44.9547 102.65 45.696 103.119 46.208C103.599 46.7093 104.266 46.96 105.119 46.96C105.663 46.96 106.143 46.912 106.559 46.816C106.986 46.7093 107.423 46.56 107.871 46.368V47.6C107.434 47.792 107.002 47.9307 106.575 48.016C106.148 48.112 105.642 48.16 105.055 48.16C104.244 48.16 103.524 47.9947 102.895 47.664C102.276 47.3333 101.791 46.8427 101.439 46.192C101.098 45.5307 100.927 44.7253 100.927 43.776C100.927 42.8373 101.082 42.032 101.391 41.36C101.711 40.688 102.154 40.1707 102.719 39.808C103.295 39.4453 103.962 39.264 104.719 39.264ZM104.703 40.416C104.031 40.416 103.498 40.6347 103.103 41.072C102.719 41.4987 102.49 42.096 102.415 42.864H106.783C106.783 42.3733 106.708 41.9467 106.559 41.584C106.41 41.2213 106.18 40.9387 105.871 40.736C105.572 40.5227 105.183 40.416 104.703 40.416ZM114.438 39.264C114.598 39.264 114.769 39.2747 114.95 39.296C115.142 39.3067 115.307 39.328 115.446 39.36L115.27 40.656C115.131 40.624 114.977 40.5973 114.806 40.576C114.646 40.5547 114.491 40.544 114.342 40.544C114.011 40.544 113.697 40.6133 113.398 40.752C113.099 40.8907 112.833 41.088 112.598 41.344C112.363 41.5893 112.177 41.888 112.038 42.24C111.91 42.592 111.846 42.9867 111.846 43.424V48H110.438V39.424H111.59L111.75 40.992H111.814C111.995 40.672 112.214 40.384 112.47 40.128C112.726 39.8613 113.019 39.6533 113.35 39.504C113.681 39.344 114.043 39.264 114.438 39.264ZM120.047 39.264C120.783 39.264 121.412 39.424 121.935 39.744C122.468 40.064 122.874 40.5173 123.151 41.104C123.439 41.68 123.583 42.3573 123.583 43.136V43.984H117.711C117.732 44.9547 117.978 45.696 118.447 46.208C118.927 46.7093 119.594 46.96 120.447 46.96C120.991 46.96 121.471 46.912 121.887 46.816C122.314 46.7093 122.751 46.56 123.199 46.368V47.6C122.762 47.792 122.33 47.9307 121.903 48.016C121.476 48.112 120.97 48.16 120.383 48.16C119.572 48.16 118.852 47.9947 118.223 47.664C117.604 47.3333 117.119 46.8427 116.767 46.192C116.426 45.5307 116.255 44.7253 116.255 43.776C116.255 42.8373 116.41 42.032 116.719 41.36C117.039 40.688 117.482 40.1707 118.047 39.808C118.623 39.4453 119.29 39.264 120.047 39.264ZM120.031 40.416C119.359 40.416 118.826 40.6347 118.431 41.072C118.047 41.4987 117.818 42.096 117.743 42.864H122.111C122.111 42.3733 122.036 41.9467 121.887 41.584C121.738 41.2213 121.508 40.9387 121.199 40.736C120.9 40.5227 120.511 40.416 120.031 40.416Z" fill="black"/>
<circle cx="77" cy="125" r="48.5" fill="#2353FE" stroke="black"/>
<path d="M60 125.035H93.4057M93.4057 125.035L77.371 109M93.4057 125.035L77.371 141.069" stroke="black" stroke-width="4.00868" stroke-linecap="round" stroke-linejoin="round"/>
</svg>
